<?xml version="1.0" encoding="UTF-8"?>
<!-- Generator: Adobe Illustrator 26.0.1, SVG Export Plug-In . SVG Version: 6.00 Build 0)  -->
<svg xmlns="http://www.w3.org/2000/svg" xmlns:xlink="http://www.w3.org/1999/xlink" version="1.1" id="Capa_1" x="0px" y="0px" viewBox="0 0 512 512" style="enable-background:new 0 0 512 512;" xml:space="preserve" width="512" height="512">
<g id="Group">
	<g id="Rectangle_55_x5F_2">
		<path d="M390.65,175.9c26.08-17.14,43.33-46.65,43.33-80.11C433.98,42.97,391,0,338.18,0H173.82C121,0,78.02,42.97,78.02,95.79    c0,33.46,17.25,62.97,43.33,80.11c-26.08,17.13-43.33,46.64-43.33,80.1s17.25,62.97,43.33,80.11    c-26.08,17.12-43.33,46.64-43.33,80.1c0,52.82,43.21,95.79,96.31,95.79c53.68,0,97.36-43.44,97.36-96.83v-88.34    c17.02,15.51,39.63,24.96,64.41,24.96h2.08c52.82,0,95.8-42.97,95.8-95.79C433.98,222.54,416.73,193.03,390.65,175.9z     M271.69,31.38h66.49c35.52,0,64.42,28.89,64.42,64.41s-28.9,64.42-64.42,64.42h-66.49V31.38z M109.4,95.79    c0-35.52,28.9-64.41,64.42-64.41h66.49v128.83h-66.49C138.3,160.21,109.4,131.31,109.4,95.79z M109.4,256    c0-35.52,28.9-64.41,64.42-64.41h66.49v128.83h-66.9C138.08,320.2,109.4,291.38,109.4,256z M240.31,415.17    c0,36.09-29.6,65.45-65.98,65.45c-35.8,0-64.93-28.89-64.93-64.41s28.9-64.42,64.42-64.42h66.49V415.17z M338.18,320.42h-2.08    c-35.52,0-64.41-28.9-64.41-64.42s28.89-64.41,64.41-64.41h2.08c35.52,0,64.42,28.89,64.42,64.41S373.7,320.42,338.18,320.42z"/>
	</g>
	<g id="Rectangle_55_x5F_4">
		<path d="M173.82,320.41c-0.14,0-0.27,0-0.41,0.01h66.9v-0.01H173.82z"/>
	</g>
</g>















</svg>
