<?xml version="1.0" encoding="UTF-8"?>
<!-- Generator: Adobe Illustrator 26.0.1, SVG Export Plug-In . SVG Version: 6.00 Build 0)  -->
<svg xmlns="http://www.w3.org/2000/svg" xmlns:xlink="http://www.w3.org/1999/xlink" version="1.1" id="Capa_1" x="0px" y="0px" viewBox="0 0 512 512" style="enable-background:new 0 0 512 512;" xml:space="preserve" width="512" height="512">
<g>
	<path d="M512,46.413C512,20.78,491.22,0,465.587,0H46.413C20.78,0,0,20.78,0,46.413v419.174C0,491.22,20.78,512,46.413,512h419.174   C491.22,512,512,491.22,512,465.587V46.413z M170.604,99.943c17.022,0,31.278,13.337,31.278,30.809   c0,17.485-14.256,30.824-31.278,30.824c-17.018,0-31.274-13.34-31.274-30.824C139.33,113.279,153.586,99.943,170.604,99.943z    M379.853,394.764c-31.737,0-46.911-18.848-46.911-44.614c0-7.351,0.916-15.178,3.216-22.997l15.181-54.273   c1.838-5.982,2.301-11.496,2.301-16.559c0-17.472-10.58-28.055-27.599-28.055c-21.62,0-35.878,15.516-43.236,45.415l-29.44,118.077   h-51.512l9.245-37.107c-15.14,24.873-36.169,40.279-62.111,40.279c-31.277,0-45.996-18.018-45.996-45.16   c0-6.889,0.922-15.334,2.76-23.153l23.457-95.829H92.875l11.039-40.727h87.39l-34.5,136.848c-2.3,8.745-3.219,15.999-3.219,21.05   c0,8.751,4.307,11.309,11.043,12.828c4.101,0.919,36.787,0.277,54.584-39.279l22.657-90.72h-36.797l11.039-40.727h78.651   l-10.117,46.238c13.796-25.761,41.395-50.237,68.531-50.237c28.977,0,52.897,20.643,52.897,60.199   c0,10.114-1.381,21.126-5.06,33.541l-14.721,52.877c-1.376,5.532-2.301,10.126-2.301,14.264c0,9.195,3.682,13.792,10.583,13.792   c6.898,0,15.637-5.071,25.757-33.114l20.235,7.813C428.609,377.293,406.992,394.764,379.853,394.764z"/>
</g>















</svg>
